<svg width="25px" height="25px" version="1.1" id="Layer_1" xmlns="http://www.w3.org/2000/svg" xmlns:xlink="http://www.w3.org/1999/xlink" x="0px" y="0px"
	 viewBox="0 0 512 512" enable-background="new 0 0 512 512" xml:space="preserve">
<path fill="none" opacity="1.000000" stroke="none" 
	d="
M513.000000,302.000000 
	C513.000000,317.354218 513.000000,332.708466 512.616394,348.665192 
	C511.825104,350.987305 511.269073,352.686768 511.032471,354.429596 
	C508.302673,374.540710 501.654999,393.458923 492.710663,411.501892 
	C483.989716,429.094177 472.774323,445.212555 459.592804,459.735382 
	C445.010284,475.801849 428.514404,489.761993 410.700256,502.279968 
	C405.056000,506.246185 399.554932,507.847321 393.361206,506.782928 
	C390.464966,506.285217 386.954071,504.047913 385.541748,501.564178 
	C383.739410,498.394440 383.904327,494.374329 387.216980,491.160614 
	C391.231659,487.265839 394.846832,482.960205 398.650848,478.847137 
	C408.611359,468.077393 416.641235,456.105835 422.199524,442.443970 
	C430.345642,422.421417 431.778473,402.116119 425.048248,381.512054 
	C418.980957,362.937439 408.328430,347.441254 393.354004,334.723572 
	C379.261139,322.754578 363.559814,313.678192 346.062714,308.151184 
	C333.833557,304.288177 321.190643,301.549438 308.567841,299.189240 
	C301.265625,297.823883 293.636902,298.204773 286.000000,297.791351 
	C286.000000,331.490723 286.036865,364.301971 285.955017,397.112946 
	C285.944397,401.381531 285.194611,405.687317 280.905823,407.993500 
	C276.570862,410.324615 272.178040,409.314453 268.463348,406.727631 
	C257.455902,399.062317 246.644226,391.115570 235.767517,383.262909 
	C213.489975,367.179199 191.238388,351.059540 168.940659,335.003906 
	C153.207291,323.675049 137.385666,312.468689 121.656715,301.133728 
	C97.131706,283.459991 72.655952,265.717896 48.151402,248.015747 
	C32.441639,236.666946 16.717627,225.337906 1.000001,214.000000 
	C1.000000,210.969406 1.000000,207.938812 1.334996,204.380981 
	C3.147025,202.565796 4.535561,201.155930 6.115119,200.009201 
	C18.541662,190.987823 31.013399,182.028748 43.454502,173.027359 
	C61.530312,159.949188 79.586418,146.843811 97.661598,133.764771 
	C114.560181,121.537079 131.501205,109.367859 148.371628,97.101501 
	C168.524780,82.448296 188.599335,67.687004 208.751389,53.032284 
	C227.708008,39.246887 246.679977,25.481634 265.744812,11.846764 
	C269.488525,9.169312 273.266754,5.756542 278.528595,7.228111 
	C283.365601,8.580883 285.992340,13.342570 285.995178,20.343220 
	C286.006744,48.837521 286.000000,77.331833 286.000000,105.826141 
	C286.000000,110.132187 286.000000,114.438232 286.000000,118.638008 
	C287.920471,119.159744 289.442780,119.819550 291.011139,119.958382 
	C299.501312,120.709877 308.114105,120.691872 316.475677,122.142952 
	C330.584991,124.591484 344.684082,127.388908 358.520813,131.048019 
	C377.848175,136.159134 395.837708,144.736374 412.913147,155.054581 
	C428.061279,164.208191 441.916779,174.999237 454.413330,187.702179 
	C467.424835,200.928574 478.781036,215.207062 487.926025,231.353378 
	C497.656769,248.534027 504.789948,266.646484 509.024139,285.926910 
	C510.207611,291.315735 511.667114,296.643982 513.000000,302.000000 
z"/>
<path fill="#FFFFFF" opacity="1.000000" stroke="none" 
	d="
M1.000001,214.468658 
	C16.717627,225.337906 32.441639,236.666946 48.151402,248.015747 
	C72.655952,265.717896 97.131706,283.459991 121.656715,301.133728 
	C137.385666,312.468689 153.207291,323.675049 168.940659,335.003906 
	C191.238388,351.059540 213.489975,367.179199 235.767517,383.262909 
	C246.644226,391.115570 257.455902,399.062317 268.463348,406.727631 
	C272.178040,409.314453 276.570862,410.324615 280.905823,407.993500 
	C285.194611,405.687317 285.944397,401.381531 285.955017,397.112946 
	C286.036865,364.301971 286.000000,331.490723 286.000000,297.791351 
	C293.636902,298.204773 301.265625,297.823883 308.567841,299.189240 
	C321.190643,301.549438 333.833557,304.288177 346.062714,308.151184 
	C363.559814,313.678192 379.261139,322.754578 393.354004,334.723572 
	C408.328430,347.441254 418.980957,362.937439 425.048248,381.512054 
	C431.778473,402.116119 430.345642,422.421417 422.199524,442.443970 
	C416.641235,456.105835 408.611359,468.077393 398.650848,478.847137 
	C394.846832,482.960205 391.231659,487.265839 387.216980,491.160614 
	C383.904327,494.374329 383.739410,498.394440 385.541748,501.564178 
	C386.954071,504.047913 390.464966,506.285217 393.361206,506.782928 
	C399.554932,507.847321 405.056000,506.246185 410.700256,502.279968 
	C428.514404,489.761993 445.010284,475.801849 459.592804,459.735382 
	C472.774323,445.212555 483.989716,429.094177 492.710663,411.501892 
	C501.654999,393.458923 508.302673,374.540710 511.032471,354.429596 
	C511.269073,352.686768 511.825104,350.987305 512.616394,349.133850 
	C513.000000,403.642120 513.000000,458.284210 513.000000,512.963135 
	C342.434540,512.963135 171.869049,512.963135 1.000000,512.963135 
	C1.000000,413.645966 1.000000,314.291656 1.000001,214.468658 
z"/>
<path fill="#FFFFFF" opacity="1.000000" stroke="none" 
	d="
M513.000000,301.531342 
	C511.667114,296.643982 510.207611,291.315735 509.024139,285.926910 
	C504.789948,266.646484 497.656769,248.534027 487.926025,231.353378 
	C478.781036,215.207062 467.424835,200.928574 454.413330,187.702179 
	C441.916779,174.999237 428.061279,164.208191 412.913147,155.054581 
	C395.837708,144.736374 377.848175,136.159134 358.520813,131.048019 
	C344.684082,127.388908 330.584991,124.591484 316.475677,122.142952 
	C308.114105,120.691872 299.501312,120.709877 291.011139,119.958382 
	C289.442780,119.819550 287.920471,119.159744 286.000000,118.638008 
	C286.000000,114.438232 286.000000,110.132187 286.000000,105.826141 
	C286.000000,77.331833 286.006744,48.837521 285.995178,20.343220 
	C285.992340,13.342570 283.365601,8.580883 278.528595,7.228111 
	C273.266754,5.756542 269.488525,9.169312 265.744812,11.846764 
	C246.679977,25.481634 227.708008,39.246887 208.751389,53.032284 
	C188.599335,67.687004 168.524780,82.448296 148.371628,97.101501 
	C131.501205,109.367859 114.560181,121.537079 97.661598,133.764771 
	C79.586418,146.843811 61.530312,159.949188 43.454502,173.027359 
	C31.013399,182.028748 18.541662,190.987823 6.115119,200.009201 
	C4.535561,201.155930 3.147025,202.565796 1.334996,203.926880 
	C1.000000,136.362457 1.000000,68.724907 1.000000,1.043680 
	C171.564102,1.043680 342.128204,1.043680 513.000000,1.043680 
	C513.000000,101.020683 513.000000,201.041687 513.000000,301.531342 
z"/>
</svg>