<svg xmlns="http://www.w3.org/2000/svg" viewBox="0 0 512 512" y="0"
                             x="0" width="100" height="100"
                            class="w-8 h-8 shrink-0 fill-neutral-50">
<path fill="#000000" opacity="1.000000" stroke="none" 
	d="
M513.000000,356.000000 
	C513.000000,408.252319 513.000000,460.504639 513.000000,513.000000 
	C471.312744,513.000000 429.625031,513.000000 387.177307,512.684937 
	C387.608154,511.587708 388.712891,510.602264 390.003448,510.055359 
	C401.144775,505.334229 409.759247,497.794769 413.281616,486.106171 
	C419.899384,464.145874 425.934753,442.004639 431.791290,419.827454 
	C432.515564,417.084869 431.324158,413.311066 429.872894,410.638214 
	C427.496216,406.261078 422.971344,405.123657 418.291229,406.086182 
	C413.867065,406.996063 411.179810,410.020630 409.986755,414.453094 
	C404.691284,434.126465 399.166595,453.739807 394.058350,473.461273 
	C391.031494,485.147095 379.871185,493.597473 369.060089,490.886230 
	C350.070129,486.123779 331.208466,480.845398 312.317108,475.694946 
	C283.520264,467.843933 254.771240,459.816315 225.951630,452.050293 
	C192.627853,443.070526 159.251907,434.284180 125.894203,425.430573 
	C97.654610,417.935394 69.424065,410.405304 41.158787,403.008087 
	C28.032225,399.572784 21.805954,389.874786 23.083111,379.633392 
	C23.575226,375.687164 24.972748,371.849915 26.004667,367.975555 
	C31.995272,345.483582 37.985336,322.991425 44.004082,300.506958 
	C49.316734,280.660309 54.755894,260.846924 59.954105,240.970444 
	C61.904594,233.512314 63.780361,225.980438 64.848694,218.364151 
	C65.607880,212.951797 61.877785,208.652939 57.355061,208.005112 
	C50.679363,207.048874 45.630699,209.498978 44.026531,215.083496 
	C39.556038,230.646378 35.248985,246.257477 31.019379,261.887970 
	C25.275185,283.115662 19.684000,304.384705 13.986231,325.625031 
	C10.368889,339.109833 6.700092,352.581085 2.959599,366.032074 
	C2.743389,366.809601 1.672921,367.349518 1.000005,368.000000 
	C1.000000,245.722931 1.000000,123.445854 1.000000,1.084393 
	C171.666641,1.084393 342.333313,1.084393 513.000000,1.089952 
	C513.000000,24.751234 513.000000,48.406960 512.680725,72.824593 
	C511.921600,73.122765 511.250153,72.732857 511.075348,72.184624 
	C505.159271,53.628738 487.824371,43.031422 469.573334,43.023556 
	C359.582367,42.976154 249.591370,42.984566 139.600418,43.042557 
	C133.689301,43.045670 127.757614,43.454548 121.871407,44.037235 
	C102.598625,45.945114 86.072678,64.830162 86.048271,83.917412 
	C85.937859,170.243515 85.989052,256.569855 86.042641,342.896057 
	C86.044647,346.130615 86.326279,349.446930 87.067757,352.585693 
	C91.574928,371.665283 108.744820,385.102600 127.795837,385.076935 
	C242.619537,384.922180 357.444000,384.844391 472.266876,385.190582 
	C487.157227,385.235474 505.484039,373.052856 510.129364,358.662598 
	C510.479126,357.579071 512.015320,356.878540 513.000000,356.000000 
z"/>
<path fill="#FFFFFF" opacity="1.000000" stroke="none" 
	d="
M513.000000,355.531311 
	C512.015320,356.878540 510.479126,357.579071 510.129364,358.662598 
	C505.484039,373.052856 487.157227,385.235474 472.266876,385.190582 
	C357.444000,384.844391 242.619537,384.922180 127.795837,385.076935 
	C108.744820,385.102600 91.574928,371.665283 87.067757,352.585693 
	C86.326279,349.446930 86.044647,346.130615 86.042641,342.896057 
	C85.989052,256.569855 85.937859,170.243515 86.048271,83.917412 
	C86.072678,64.830162 102.598625,45.945114 121.871407,44.037235 
	C127.757614,43.454548 133.689301,43.045670 139.600418,43.042557 
	C249.591370,42.984566 359.582367,42.976154 469.573334,43.023556 
	C487.824371,43.031422 505.159271,53.628738 511.075348,72.184624 
	C511.250153,72.732857 511.921600,73.122765 512.680725,73.293251 
	C513.000000,167.020889 513.000000,261.041779 513.000000,355.531311 
M491.000000,95.510849 
	C490.999969,92.176727 491.393158,88.782112 490.891968,85.525108 
	C490.367157,82.114777 489.518616,78.541664 487.873627,75.556557 
	C483.128632,66.945930 474.635956,65.073257 465.833252,65.065224 
	C356.505280,64.965439 247.177185,64.991066 137.849136,65.041512 
	C134.438339,65.043083 131.001648,65.490746 127.621849,66.017891 
	C114.611862,68.047073 108.000214,75.788857 108.000160,88.808899 
	C107.999832,165.805191 108.000000,242.801468 108.000000,319.797760 
	C108.000000,321.386963 108.000000,322.976166 108.000000,324.565369 
	C108.401543,324.815338 108.803078,325.065338 109.204620,325.315338 
	C110.273735,323.904144 111.188980,322.337494 112.434631,321.104675 
	C139.396133,294.420746 166.461334,267.841187 193.345413,241.079651 
	C201.520767,232.941589 219.425293,231.749084 227.616058,236.468658 
	C233.462769,239.837540 238.635986,244.567871 243.598938,249.233994 
	C251.561478,256.720337 259.101288,264.656342 266.794403,272.376831 
	C270.012970,268.549561 272.822205,265.199799 275.641357,261.858429 
	C283.021545,253.111038 290.460449,244.412430 297.775116,235.610626 
	C306.944702,224.576843 315.962036,213.416458 325.142578,202.391922 
	C332.572449,193.469696 341.072784,185.282684 347.452148,175.676392 
	C358.623993,158.853455 385.863861,157.186844 398.439758,171.917694 
	C403.125824,177.406738 407.961578,182.767731 412.702576,188.210205 
	C419.376953,195.872055 426.076935,203.512466 432.674744,211.239914 
	C441.802490,221.930420 450.854675,232.685532 459.920990,243.428314 
	C465.082489,249.544220 470.142029,255.747391 475.368622,261.806793 
	C480.313141,267.539185 485.415924,273.135040 491.000000,279.409973 
	C491.000000,217.784485 491.000000,157.145782 491.000000,95.510849 
M174.999969,291.499969 
	C154.027130,312.461365 133.054276,333.422791 112.040459,354.425140 
	C117.178406,360.336700 123.281296,363.115753 131.299500,363.104797 
	C244.244156,362.950592 357.189117,362.944092 470.133789,363.090881 
	C480.830170,363.104767 491.542603,352.786713 491.030243,342.349792 
	C490.842590,338.527557 490.793610,334.675018 491.040253,330.859497 
	C491.679779,320.966583 490.759644,312.370087 482.602142,304.570892 
	C472.382721,294.800293 464.016418,283.099335 454.771271,272.299164 
	C448.058319,264.457153 441.161041,256.772919 434.446503,248.932266 
	C425.091278,238.007996 415.816772,227.014450 406.532745,216.029419 
	C399.576721,207.798889 392.391632,199.743011 385.797485,191.230591 
	C378.425751,181.714447 371.997192,181.534119 364.311798,191.142700 
	C360.637085,195.736984 356.699341,200.120667 352.889740,204.607422 
	C345.377991,213.454544 337.802948,222.249176 330.382141,231.172012 
	C321.212585,242.197479 312.184052,253.340149 303.074493,264.415649 
	C295.307434,273.858856 287.379974,283.173645 279.768890,292.740509 
	C273.141510,301.070923 264.811554,303.273773 256.719177,294.464172 
	C245.798065,282.575134 233.991287,271.499542 222.562134,260.077393 
	C216.793427,254.312164 212.272034,254.261642 206.608582,259.915527 
	C196.234314,270.272247 185.869019,280.638000 174.999969,291.499969 
z"/>
<path fill="#000000" opacity="1.000000" stroke="none" 
	d="
M360.000000,513.000000 
	C240.443146,513.000000 120.886284,513.000000 1.000000,513.000000 
	C1.000000,473.979736 1.000000,434.958527 1.389252,395.471802 
	C2.163946,395.237183 2.787821,395.385498 2.900457,395.710815 
	C7.333474,408.514618 15.387105,417.817474 28.527424,422.129364 
	C33.238178,423.675140 38.015148,425.031616 42.797611,426.344391 
	C71.575645,434.244080 100.339027,442.198975 129.155945,449.954712 
	C158.758453,457.921875 188.427521,465.641418 218.046829,473.546570 
	C239.598694,479.298645 261.097412,485.250153 282.655426,490.978851 
	C308.098145,497.739838 333.581421,504.348206 359.025940,511.102539 
	C359.486084,511.224731 359.681213,512.345276 360.000000,513.000000 
z"/>
<path fill="#FFFFFF" opacity="1.000000" stroke="none" 
	d="
M360.468689,513.000000 
	C359.681213,512.345276 359.486084,511.224731 359.025940,511.102539 
	C333.581421,504.348206 308.098145,497.739838 282.655426,490.978851 
	C261.097412,485.250153 239.598694,479.298645 218.046829,473.546570 
	C188.427521,465.641418 158.758453,457.921875 129.155945,449.954712 
	C100.339027,442.198975 71.575645,434.244080 42.797611,426.344391 
	C38.015148,425.031616 33.238178,423.675140 28.527424,422.129364 
	C15.387105,417.817474 7.333474,408.514618 2.900457,395.710815 
	C2.787821,395.385498 2.163946,395.237183 1.389252,395.003174 
	C1.000000,386.312439 1.000000,377.624878 1.000005,368.468658 
	C1.672921,367.349518 2.743389,366.809601 2.959599,366.032074 
	C6.700092,352.581085 10.368889,339.109833 13.986231,325.625031 
	C19.684000,304.384705 25.275185,283.115662 31.019379,261.887970 
	C35.248985,246.257477 39.556038,230.646378 44.026531,215.083496 
	C45.630699,209.498978 50.679363,207.048874 57.355061,208.005112 
	C61.877785,208.652939 65.607880,212.951797 64.848694,218.364151 
	C63.780361,225.980438 61.904594,233.512314 59.954105,240.970444 
	C54.755894,260.846924 49.316734,280.660309 44.004082,300.506958 
	C37.985336,322.991425 31.995272,345.483582 26.004667,367.975555 
	C24.972748,371.849915 23.575226,375.687164 23.083111,379.633392 
	C21.805954,389.874786 28.032225,399.572784 41.158787,403.008087 
	C69.424065,410.405304 97.654610,417.935394 125.894203,425.430573 
	C159.251907,434.284180 192.627853,443.070526 225.951630,452.050293 
	C254.771240,459.816315 283.520264,467.843933 312.317108,475.694946 
	C331.208466,480.845398 350.070129,486.123779 369.060089,490.886230 
	C379.871185,493.597473 391.031494,485.147095 394.058350,473.461273 
	C399.166595,453.739807 404.691284,434.126465 409.986755,414.453094 
	C411.179810,410.020630 413.867065,406.996063 418.291229,406.086182 
	C422.971344,405.123657 427.496216,406.261078 429.872894,410.638214 
	C431.324158,413.311066 432.515564,417.084869 431.791290,419.827454 
	C425.934753,442.004639 419.899384,464.145874 413.281616,486.106171 
	C409.759247,497.794769 401.144775,505.334229 390.003448,510.055359 
	C388.712891,510.602264 387.608154,511.587708 386.708618,512.684937 
	C378.312439,513.000000 369.624878,513.000000 360.468689,513.000000 
z"/>
<path fill="#000000" opacity="1.000000" stroke="none" 
	d="
M491.000000,96.008972 
	C491.000000,157.145782 491.000000,217.784485 491.000000,279.409973 
	C485.415924,273.135040 480.313141,267.539185 475.368622,261.806793 
	C470.142029,255.747391 465.082489,249.544220 459.920990,243.428314 
	C450.854675,232.685532 441.802490,221.930420 432.674744,211.239914 
	C426.076935,203.512466 419.376953,195.872055 412.702576,188.210205 
	C407.961578,182.767731 403.125824,177.406738 398.439758,171.917694 
	C385.863861,157.186844 358.623993,158.853455 347.452148,175.676392 
	C341.072784,185.282684 332.572449,193.469696 325.142578,202.391922 
	C315.962036,213.416458 306.944702,224.576843 297.775116,235.610626 
	C290.460449,244.412430 283.021545,253.111038 275.641357,261.858429 
	C272.822205,265.199799 270.012970,268.549561 266.794403,272.376831 
	C259.101288,264.656342 251.561478,256.720337 243.598938,249.233994 
	C238.635986,244.567871 233.462769,239.837540 227.616058,236.468658 
	C219.425293,231.749084 201.520767,232.941589 193.345413,241.079651 
	C166.461334,267.841187 139.396133,294.420746 112.434631,321.104675 
	C111.188980,322.337494 110.273735,323.904144 109.204620,325.315338 
	C108.803078,325.065338 108.401543,324.815338 108.000000,324.565369 
	C108.000000,322.976166 108.000000,321.386963 108.000000,319.797760 
	C108.000000,242.801468 107.999832,165.805191 108.000160,88.808899 
	C108.000214,75.788857 114.611862,68.047073 127.621849,66.017891 
	C131.001648,65.490746 134.438339,65.043083 137.849136,65.041512 
	C247.177185,64.991066 356.505280,64.965439 465.833252,65.065224 
	C474.635956,65.073257 483.128632,66.945930 487.873627,75.556557 
	C489.518616,78.541664 490.367157,82.114777 490.891968,85.525108 
	C491.393158,88.782112 490.999969,92.176727 491.000000,96.008972 
M232.582123,133.064133 
	C225.464828,116.378288 206.464264,104.641205 186.293518,107.758232 
	C167.550018,110.654709 151.894760,126.499092 150.154816,144.941071 
	C147.322952,174.956451 170.039474,197.622879 200.735367,192.680328 
	C229.394302,188.065750 242.696106,159.232773 232.582123,133.064133 
z"/>
<path fill="#000000" opacity="1.000000" stroke="none" 
	d="
M175.249985,291.250000 
	C185.869019,280.638000 196.234314,270.272247 206.608582,259.915527 
	C212.272034,254.261642 216.793427,254.312164 222.562134,260.077393 
	C233.991287,271.499542 245.798065,282.575134 256.719177,294.464172 
	C264.811554,303.273773 273.141510,301.070923 279.768890,292.740509 
	C287.379974,283.173645 295.307434,273.858856 303.074493,264.415649 
	C312.184052,253.340149 321.212585,242.197479 330.382141,231.172012 
	C337.802948,222.249176 345.377991,213.454544 352.889740,204.607422 
	C356.699341,200.120667 360.637085,195.736984 364.311798,191.142700 
	C371.997192,181.534119 378.425751,181.714447 385.797485,191.230591 
	C392.391632,199.743011 399.576721,207.798889 406.532745,216.029419 
	C415.816772,227.014450 425.091278,238.007996 434.446503,248.932266 
	C441.161041,256.772919 448.058319,264.457153 454.771271,272.299164 
	C464.016418,283.099335 472.382721,294.800293 482.602142,304.570892 
	C490.759644,312.370087 491.679779,320.966583 491.040253,330.859497 
	C490.793610,334.675018 490.842590,338.527557 491.030243,342.349792 
	C491.542603,352.786713 480.830170,363.104767 470.133789,363.090881 
	C357.189117,362.944092 244.244156,362.950592 131.299500,363.104797 
	C123.281296,363.115753 117.178406,360.336700 112.040459,354.425140 
	C133.054276,333.422791 154.027130,312.461365 175.249985,291.250000 
z"/>
<path fill="#FFFFFF" opacity="1.000000" stroke="none" 
	d="
M232.779556,133.411438 
	C242.696106,159.232773 229.394302,188.065750 200.735367,192.680328 
	C170.039474,197.622879 147.322952,174.956451 150.154816,144.941071 
	C151.894760,126.499092 167.550018,110.654709 186.293518,107.758232 
	C206.464264,104.641205 225.464828,116.378288 232.779556,133.411438 
M202.880417,168.648376 
	C211.330750,164.025223 215.047318,153.266388 213.795197,147.472565 
	C211.463776,136.684586 201.947601,129.027710 191.040665,129.777893 
	C181.584641,130.428299 170.022720,141.359726 172.169510,152.791107 
	C174.949051,167.591843 189.032806,175.135727 202.880417,168.648376 
z"/>
<path fill="#000000" opacity="1.000000" stroke="none" 
	d="
M202.521637,168.817490 
	C189.032806,175.135727 174.949051,167.591843 172.169510,152.791107 
	C170.022720,141.359726 181.584641,130.428299 191.040665,129.777893 
	C201.947601,129.027710 211.463776,136.684586 213.795197,147.472565 
	C215.047318,153.266388 211.330750,164.025223 202.521637,168.817490 
z"/>
</svg>