<svg width="25px" height="25px" version="1.1" id="Layer_1" xmlns="http://www.w3.org/2000/svg" xmlns:xlink="http://www.w3.org/1999/xlink" x="0px" y="0px"
	 width="100%" viewBox="0 0 512 512" enable-background="new 0 0 512 512" xml:space="preserve">
<path fill="#000000" opacity="1.000000" stroke="none" 
	d="
M1.000000,192.000000 
	C1.000000,128.000000 1.000000,64.500000 1.000000,1.000000 
	C171.666672,1.000000 342.333344,1.000000 513.000000,1.000000 
	C513.000000,171.666672 513.000000,342.333344 513.000000,513.000000 
	C342.333344,513.000000 171.666672,513.000000 1.000000,513.000000 
	C1.000000,406.166656 1.000000,299.333344 1.000000,192.000000 
M152.500000,254.000000 
	C137.738068,254.000000 122.976128,254.000000 108.217941,254.000000 
	C108.105652,255.045547 108.009201,255.524673 108.009125,256.003784 
	C108.001411,307.163452 107.989014,358.323151 108.015404,409.482819 
	C108.018623,415.723694 112.809814,419.997345 119.588921,419.997772 
	C181.247162,420.001556 242.905411,420.000000 304.563660,420.000000 
	C306.013092,420.000000 307.462524,420.000000 308.921570,420.000000 
	C308.639954,408.533966 320.773346,397.121246 331.124390,397.928772 
	C336.349640,398.336456 341.632904,398.000000 346.790070,398.000000 
	C346.911407,397.017090 346.986176,396.694000 346.986267,396.370911 
	C346.994507,365.208557 347.227356,334.043732 346.898865,302.884888 
	C346.744110,288.205811 357.306732,273.893799 371.070312,269.130219 
	C375.116608,267.729797 379.620300,267.155273 383.927307,267.092438 
	C399.859650,266.860077 415.797394,267.000000 431.743286,267.000000 
	C431.743286,210.078888 431.743286,153.679123 431.743286,97.000000 
	C416.520325,97.000000 401.551727,97.093788 386.585327,96.954323 
	C380.512482,96.897736 374.414520,96.603561 368.381195,95.936378 
	C359.338989,94.936478 346.958069,82.834969 346.096344,73.846596 
	C345.310852,65.653313 345.149445,57.384926 345.042816,49.145374 
	C344.879669,36.537830 345.000000,23.926624 345.000000,11.000000 
	C342.735321,11.000000 340.937347,11.000000 339.139374,11.000000 
	C265.982697,11.000000 192.826019,10.999924 119.669350,11.000106 
	C111.303482,11.000127 108.003036,14.380092 108.001205,22.969534 
	C107.997253,41.467010 107.995262,59.964489 108.009254,78.461952 
	C108.010338,79.900810 108.142677,81.339569 108.224998,83.000000 
	C110.352882,83.000000 112.162971,83.000000 113.973068,83.000000 
	C165.132751,83.000000 216.292480,82.965500 267.452087,83.030128 
	C277.271973,83.042534 285.336884,87.797394 291.720337,94.572876 
	C299.454102,102.781555 302.246918,113.056046 302.111237,124.495880 
	C301.773346,152.987991 302.046967,181.486938 301.955078,209.982742 
	C301.939240,214.889877 301.856995,219.899536 300.903503,224.682022 
	C297.769196,240.402786 283.985168,253.805893 267.483887,253.918076 
	C229.490829,254.176392 191.494812,254.000000 152.500000,254.000000 
M20.000000,143.500000 
	C20.000000,168.158295 20.362671,192.824661 19.813137,217.470703 
	C19.606855,226.722168 28.290272,235.219345 37.535667,235.180435 
	C113.509003,234.860764 189.484955,234.852478 265.458008,235.204056 
	C274.057159,235.243851 282.904663,226.737534 282.943481,217.794128 
	C283.085999,184.972336 283.109375,152.148972 282.924774,119.327606 
	C282.877289,110.883675 275.840576,101.916550 265.570374,101.933098 
	C189.096069,102.056328 112.621460,102.023216 36.146988,101.964775 
	C28.335064,101.958801 19.645359,109.539970 19.938883,118.010284 
	C20.221449,126.164436 20.000002,134.336060 20.000000,143.500000 
M457.500000,460.000000 
	C468.813446,448.691498 480.050781,437.304962 491.503296,426.139130 
	C493.848511,423.852600 494.859558,421.253326 493.668823,418.723206 
	C493.109070,417.533875 490.021423,417.100800 488.068542,417.072662 
	C477.467468,416.919617 466.863068,417.000000 456.000000,417.000000 
	C456.000000,414.844543 456.000000,413.203735 456.000000,411.562927 
	C456.000000,375.235291 455.935516,338.907501 456.043121,302.580170 
	C456.071838,292.892120 448.719055,286.264526 439.904816,286.106171 
	C420.747314,285.761993 401.577148,285.826782 382.416718,286.075745 
	C373.330688,286.193787 365.891235,293.074127 365.934692,302.757812 
	C366.097748,339.084717 366.000000,375.412750 366.000000,411.740387 
	C366.000000,413.362640 366.000000,414.984863 366.000000,417.000000 
	C354.991760,417.000000 344.370972,416.913269 333.754181,417.079956 
	C331.843384,417.109985 329.948975,418.183655 328.046997,418.775482 
	C328.804504,421.137054 328.909607,424.099640 330.434174,425.754517 
	C336.524567,432.365448 343.020447,438.606201 349.431427,444.917786 
	C368.383636,463.576172 387.378845,482.190918 406.326294,500.854156 
	C409.502716,503.982941 412.461273,503.999878 415.650909,500.874146 
	C429.409485,487.391144 443.212921,473.953918 457.500000,460.000000 
M64.940575,461.405151 
	C67.824852,462.603455 70.706947,464.842743 73.593735,464.848785 
	C161.908264,465.033997 250.223251,465.001007 338.538177,464.990845 
	C339.919189,464.990692 341.300171,464.852997 343.605621,464.730316 
	C335.085632,456.706146 327.166382,449.450989 319.520325,441.918579 
	C317.324493,439.755371 315.217224,438.932312 312.177460,438.936279 
	C247.524384,439.020294 182.871155,438.974365 118.217987,439.018768 
	C102.789146,439.029358 88.976372,425.131866 88.986938,409.883850 
	C89.021675,359.727631 89.000000,309.571442 89.000000,259.415222 
	C89.000000,257.658936 89.000000,255.902634 89.000000,254.320984 
	C79.620125,254.320984 70.880051,254.320984 62.000553,254.320984 
	C62.000553,255.295563 62.000553,255.949097 62.000549,256.602631 
	C62.000362,321.422455 61.966167,386.242310 62.099575,451.061859 
	C62.106304,454.332855 63.560726,457.600861 64.940575,461.405151 
M368.085052,75.604698 
	C370.007385,76.402130 371.923523,77.874619 373.853027,77.892349 
	C392.740204,78.065948 411.629669,77.996986 430.709076,77.996986 
	C428.152588,72.442955 367.737946,12.659627 364.000000,11.782029 
	C364.000000,29.608675 363.823456,47.430508 364.159637,65.242661 
	C364.221527,68.523186 366.360199,71.764511 368.085052,75.604698 
M86.322296,82.999718 
	C87.214333,82.226875 88.862862,81.471901 88.881599,80.678452 
	C89.072609,72.588272 88.998405,64.491829 88.998405,56.000000 
	C83.682365,56.000000 78.743591,55.972260 73.805267,56.006954 
	C67.500320,56.051254 64.082657,58.512264 63.086895,64.800232 
	C62.153984,70.691338 62.060394,76.715363 61.572681,82.999992 
	C70.125893,82.999992 77.737083,82.999992 86.322296,82.999718 
z"/>
<path fill="#FFFFFF" opacity="1.000000" stroke="none" 
	d="
M153.000000,254.000000 
	C191.494812,254.000000 229.490829,254.176392 267.483887,253.918076 
	C283.985168,253.805893 297.769196,240.402786 300.903503,224.682022 
	C301.856995,219.899536 301.939240,214.889877 301.955078,209.982742 
	C302.046967,181.486938 301.773346,152.987991 302.111237,124.495880 
	C302.246918,113.056046 299.454102,102.781555 291.720337,94.572876 
	C285.336884,87.797394 277.271973,83.042534 267.452087,83.030128 
	C216.292480,82.965500 165.132751,83.000000 113.973068,83.000000 
	C112.162971,83.000000 110.352882,83.000000 108.224998,83.000000 
	C108.142677,81.339569 108.010338,79.900810 108.009254,78.461952 
	C107.995262,59.964489 107.997253,41.467010 108.001205,22.969534 
	C108.003036,14.380092 111.303482,11.000127 119.669350,11.000106 
	C192.826019,10.999924 265.982697,11.000000 339.139374,11.000000 
	C340.937347,11.000000 342.735321,11.000000 345.000000,11.000000 
	C345.000000,23.926624 344.879669,36.537830 345.042816,49.145374 
	C345.149445,57.384926 345.310852,65.653313 346.096344,73.846596 
	C346.958069,82.834969 359.338989,94.936478 368.381195,95.936378 
	C374.414520,96.603561 380.512482,96.897736 386.585327,96.954323 
	C401.551727,97.093788 416.520325,97.000000 431.743286,97.000000 
	C431.743286,153.679123 431.743286,210.078888 431.743286,267.000000 
	C415.797394,267.000000 399.859650,266.860077 383.927307,267.092438 
	C379.620300,267.155273 375.116608,267.729797 371.070312,269.130219 
	C357.306732,273.893799 346.744110,288.205811 346.898865,302.884888 
	C347.227356,334.043732 346.994507,365.208557 346.986267,396.370911 
	C346.986176,396.694000 346.911407,397.017090 346.790070,398.000000 
	C341.632904,398.000000 336.349640,398.336456 331.124390,397.928772 
	C320.773346,397.121246 308.639954,408.533966 308.921570,420.000000 
	C307.462524,420.000000 306.013092,420.000000 304.563660,420.000000 
	C242.905411,420.000000 181.247162,420.001556 119.588921,419.997772 
	C112.809814,419.997345 108.018623,415.723694 108.015404,409.482819 
	C107.989014,358.323151 108.001411,307.163452 108.009125,256.003784 
	C108.009201,255.524673 108.105652,255.045547 108.217941,254.000000 
	C122.976128,254.000000 137.738068,254.000000 153.000000,254.000000 
M235.500000,342.000000 
	C224.184113,342.000000 212.868118,341.972107 201.552383,342.012421 
	C196.340408,342.030975 190.957321,346.965485 191.006516,351.547974 
	C191.056320,356.186981 196.386765,360.986572 201.648361,360.989502 
	C237.593002,361.009521 273.537659,361.017975 309.482239,360.983459 
	C315.951447,360.977234 320.035156,357.149811 320.000031,351.399628 
	C319.963989,345.508636 316.020264,342.003601 309.387726,342.002136 
	C285.091827,341.996735 260.795898,342.000000 235.500000,342.000000 
M219.500275,315.000000 
	C236.473495,315.000000 253.446732,315.000000 270.419952,315.000000 
	C283.565887,315.000000 296.712189,315.058228 309.857605,314.974182 
	C315.973145,314.935120 319.990723,311.055573 320.000000,305.523956 
	C320.009766,299.728027 316.155731,296.009613 310.011902,296.007141 
	C273.902191,295.992584 237.792480,295.991638 201.682770,296.009491 
	C196.583954,296.012024 191.598022,300.243713 191.025955,304.918182 
	C190.578995,308.570496 194.397964,313.899017 199.140915,314.470154 
	C205.522858,315.238617 212.040909,314.876709 219.500275,315.000000 
z"/>
<path fill="#FFFFFF" opacity="1.000000" stroke="none" 
	d="
M20.000000,143.000000 
	C20.000002,134.336060 20.221449,126.164436 19.938883,118.010284 
	C19.645359,109.539970 28.335064,101.958801 36.146988,101.964775 
	C112.621460,102.023216 189.096069,102.056328 265.570374,101.933098 
	C275.840576,101.916550 282.877289,110.883675 282.924774,119.327606 
	C283.109375,152.148972 283.085999,184.972336 282.943481,217.794128 
	C282.904663,226.737534 274.057159,235.243851 265.458008,235.204056 
	C189.484955,234.852478 113.509003,234.860764 37.535667,235.180435 
	C28.290272,235.219345 19.606855,226.722168 19.813137,217.470703 
	C20.362671,192.824661 20.000000,168.158295 20.000000,143.000000 
M157.145096,209.999939 
	C158.873642,209.665390 160.642914,209.469009 162.323975,208.973419 
	C171.828033,206.171509 180.212509,197.534378 180.044830,186.984161 
	C179.851822,174.841339 179.519424,162.667664 180.160080,150.555664 
	C180.628204,141.705399 171.967636,131.125351 164.203934,128.895844 
	C153.482254,125.816895 142.594910,126.773636 131.843536,127.318542 
	C124.457237,127.692902 122.000168,131.914047 122.000076,139.765335 
	C121.999847,159.232040 121.997459,178.698746 122.001297,198.165451 
	C122.002769,205.596207 126.285164,209.940720 133.750946,209.989288 
	C141.237823,210.037994 148.725250,210.000000 157.145096,209.999939 
M74.000000,188.509338 
	C74.000000,185.074585 74.000000,181.639832 74.000000,178.927612 
	C81.888512,177.953110 89.367111,177.885422 96.339928,175.973297 
	C107.658730,172.869400 112.931084,163.985367 113.057816,151.171402 
	C113.132095,143.659927 105.737724,130.569473 95.591812,129.119003 
	C85.422287,127.665154 75.008369,126.968857 64.756798,127.366058 
	C57.578659,127.644180 55.000664,132.004211 55.000320,139.361328 
	C54.999382,159.500763 54.979149,179.640274 55.041084,199.779526 
	C55.045841,201.326599 55.342381,203.012543 56.006634,204.391464 
	C57.956100,208.438324 61.541489,210.254257 65.794220,209.547241 
	C70.599968,208.748291 73.750114,204.535187 73.972038,199.484024 
	C74.118019,196.161606 73.999878,192.827560 74.000000,188.509338 
M241.798370,128.269043 
	C239.580826,127.846054 237.366943,127.081276 235.145126,127.057426 
	C223.650803,126.934067 212.152695,126.880180 200.659500,127.047485 
	C194.262283,127.140610 189.672150,131.013290 189.060699,136.581451 
	C188.753342,139.380219 189.000443,142.240097 189.000336,145.072342 
	C188.999664,162.732315 188.983704,180.392303 189.008636,198.052231 
	C189.017639,204.437546 193.758774,210.468704 198.672470,209.913269 
	C204.059265,209.304367 208.725525,203.686996 208.158752,198.184021 
	C207.484512,191.637756 208.000000,184.968979 208.000000,177.999985 
	C214.214859,177.999985 220.006729,177.958801 225.797714,178.013168 
	C230.340576,178.055801 233.119537,175.374374 234.933884,171.747940 
	C238.112885,165.393890 231.429169,158.893539 224.953598,158.983841 
	C219.360138,159.061859 213.764740,159.000046 208.304932,159.000046 
	C208.304932,154.318924 208.304932,150.246384 208.304932,146.000000 
	C218.421143,146.000000 228.234436,145.909607 238.044937,146.036270 
	C243.343903,146.104675 246.309341,143.657288 247.111328,138.532318 
	C247.782486,134.243210 246.681839,130.739639 241.798370,128.269043 
z"/>
<path fill="#FFFFFF" opacity="1.000000" stroke="none" 
	d="
M457.250000,460.250000 
	C443.212921,473.953918 429.409485,487.391144 415.650909,500.874146 
	C412.461273,503.999878 409.502716,503.982941 406.326294,500.854156 
	C387.378845,482.190918 368.383636,463.576172 349.431427,444.917786 
	C343.020447,438.606201 336.524567,432.365448 330.434174,425.754517 
	C328.909607,424.099640 328.804504,421.137054 328.046997,418.775482 
	C329.948975,418.183655 331.843384,417.109985 333.754181,417.079956 
	C344.370972,416.913269 354.991760,417.000000 366.000000,417.000000 
	C366.000000,414.984863 366.000000,413.362640 366.000000,411.740387 
	C366.000000,375.412750 366.097748,339.084717 365.934692,302.757812 
	C365.891235,293.074127 373.330688,286.193787 382.416718,286.075745 
	C401.577148,285.826782 420.747314,285.761993 439.904816,286.106171 
	C448.719055,286.264526 456.071838,292.892120 456.043121,302.580170 
	C455.935516,338.907501 456.000000,375.235291 456.000000,411.562927 
	C456.000000,413.203735 456.000000,414.844543 456.000000,417.000000 
	C466.863068,417.000000 477.467468,416.919617 488.068542,417.072662 
	C490.021423,417.100800 493.109070,417.533875 493.668823,418.723206 
	C494.859558,421.253326 493.848511,423.852600 491.503296,426.139130 
	C480.050781,437.304962 468.813446,448.691498 457.250000,460.250000 
z"/>
<path fill="#FFFFFF" opacity="1.000000" stroke="none" 
	d="
M64.640831,461.137695 
	C63.560726,457.600861 62.106304,454.332855 62.099575,451.061859 
	C61.966167,386.242310 62.000362,321.422455 62.000549,256.602631 
	C62.000553,255.949097 62.000553,255.295563 62.000553,254.320984 
	C70.880051,254.320984 79.620125,254.320984 89.000000,254.320984 
	C89.000000,255.902634 89.000000,257.658936 89.000000,259.415222 
	C89.000000,309.571442 89.021675,359.727631 88.986938,409.883850 
	C88.976372,425.131866 102.789146,439.029358 118.217987,439.018768 
	C182.871155,438.974365 247.524384,439.020294 312.177460,438.936279 
	C315.217224,438.932312 317.324493,439.755371 319.520325,441.918579 
	C327.166382,449.450989 335.085632,456.706146 343.605621,464.730316 
	C341.300171,464.852997 339.919189,464.990692 338.538177,464.990845 
	C250.223251,465.001007 161.908264,465.033997 73.593735,464.848785 
	C70.706947,464.842743 67.824852,462.603455 64.640831,461.137695 
z"/>
<path fill="#FFFFFF" opacity="1.000000" stroke="none" 
	d="
M367.812683,75.314316 
	C366.360199,71.764511 364.221527,68.523186 364.159637,65.242661 
	C363.823456,47.430508 364.000000,29.608675 364.000000,11.782029 
	C367.737946,12.659627 428.152588,72.442955 430.709076,77.996986 
	C411.629669,77.996986 392.740204,78.065948 373.853027,77.892349 
	C371.923523,77.874619 370.007385,76.402130 367.812683,75.314316 
z"/>
<path fill="#FFFFFF" opacity="1.000000" stroke="none" 
	d="
M85.835281,82.999855 
	C77.737083,82.999992 70.125893,82.999992 61.572681,82.999992 
	C62.060394,76.715363 62.153984,70.691338 63.086895,64.800232 
	C64.082657,58.512264 67.500320,56.051254 73.805267,56.006954 
	C78.743591,55.972260 83.682365,56.000000 88.998405,56.000000 
	C88.998405,64.491829 89.072609,72.588272 88.881599,80.678452 
	C88.862862,81.471901 87.214333,82.226875 85.835281,82.999855 
z"/>
<path fill="#000000" opacity="1.000000" stroke="none" 
	d="
M236.000000,342.000000 
	C260.795898,342.000000 285.091827,341.996735 309.387726,342.002136 
	C316.020264,342.003601 319.963989,345.508636 320.000031,351.399628 
	C320.035156,357.149811 315.951447,360.977234 309.482239,360.983459 
	C273.537659,361.017975 237.593002,361.009521 201.648361,360.989502 
	C196.386765,360.986572 191.056320,356.186981 191.006516,351.547974 
	C190.957321,346.965485 196.340408,342.030975 201.552383,342.012421 
	C212.868118,341.972107 224.184113,342.000000 236.000000,342.000000 
z"/>
<path fill="#000000" opacity="1.000000" stroke="none" 
	d="
M219.000412,315.000000 
	C212.040909,314.876709 205.522858,315.238617 199.140915,314.470154 
	C194.397964,313.899017 190.578995,308.570496 191.025955,304.918182 
	C191.598022,300.243713 196.583954,296.012024 201.682770,296.009491 
	C237.792480,295.991638 273.902191,295.992584 310.011902,296.007141 
	C316.155731,296.009613 320.009766,299.728027 320.000000,305.523956 
	C319.990723,311.055573 315.973145,314.935120 309.857605,314.974182 
	C296.712189,315.058228 283.565887,315.000000 270.419952,315.000000 
	C253.446732,315.000000 236.473495,315.000000 219.000412,315.000000 
z"/>
<path fill="#000000" opacity="1.000000" stroke="none" 
	d="
M156.678772,209.999969 
	C148.725250,210.000000 141.237823,210.037994 133.750946,209.989288 
	C126.285164,209.940720 122.002769,205.596207 122.001297,198.165451 
	C121.997459,178.698746 121.999847,159.232040 122.000076,139.765335 
	C122.000168,131.914047 124.457237,127.692902 131.843536,127.318542 
	C142.594910,126.773636 153.482254,125.816895 164.203934,128.895844 
	C171.967636,131.125351 180.628204,141.705399 180.160080,150.555664 
	C179.519424,162.667664 179.851822,174.841339 180.044830,186.984161 
	C180.212509,197.534378 171.828033,206.171509 162.323975,208.973419 
	C160.642914,209.469009 158.873642,209.665390 156.678772,209.999969 
M161.000000,152.746368 
	C162.067993,147.811707 158.956558,146.314774 155.052917,146.068832 
	C150.475784,145.780457 145.866547,146.001343 141.205978,146.001343 
	C141.205978,161.210541 141.205978,175.915436 141.205978,190.999054 
	C146.178253,190.999054 150.959106,191.127182 155.729340,190.957092 
	C159.316101,190.829193 161.197052,189.228912 161.089905,185.094269 
	C160.818832,174.635254 161.000000,164.164505 161.000000,152.746368 
z"/>
<path fill="#000000" opacity="1.000000" stroke="none" 
	d="
M74.000000,189.004028 
	C73.999878,192.827560 74.118019,196.161606 73.972038,199.484024 
	C73.750114,204.535187 70.599968,208.748291 65.794220,209.547241 
	C61.541489,210.254257 57.956100,208.438324 56.006634,204.391464 
	C55.342381,203.012543 55.045841,201.326599 55.041084,199.779526 
	C54.979149,179.640274 54.999382,159.500763 55.000320,139.361328 
	C55.000664,132.004211 57.578659,127.644180 64.756798,127.366058 
	C75.008369,126.968857 85.422287,127.665154 95.591812,129.119003 
	C105.737724,130.569473 113.132095,143.659927 113.057816,151.171402 
	C112.931084,163.985367 107.658730,172.869400 96.339928,175.973297 
	C89.367111,177.885422 81.888512,177.953110 74.000000,178.927612 
	C74.000000,181.639832 74.000000,185.074585 74.000000,189.004028 
M93.998596,154.155838 
	C93.979691,148.351059 92.718513,146.523819 87.418152,146.082886 
	C83.037903,145.718521 78.603226,146.008423 74.269226,146.008423 
	C74.269226,150.641068 74.269226,154.699844 74.269226,159.000000 
	C78.488297,159.000000 82.460938,158.752335 86.387199,159.072815 
	C89.985352,159.366516 92.377441,158.083847 93.998596,154.155838 
z"/>
<path fill="#000000" opacity="1.000000" stroke="none" 
	d="
M242.076721,128.568573 
	C246.681839,130.739639 247.782486,134.243210 247.111328,138.532318 
	C246.309341,143.657288 243.343903,146.104675 238.044937,146.036270 
	C228.234436,145.909607 218.421143,146.000000 208.304932,146.000000 
	C208.304932,150.246384 208.304932,154.318924 208.304932,159.000046 
	C213.764740,159.000046 219.360138,159.061859 224.953598,158.983841 
	C231.429169,158.893539 238.112885,165.393890 234.933884,171.747940 
	C233.119537,175.374374 230.340576,178.055801 225.797714,178.013168 
	C220.006729,177.958801 214.214859,177.999985 208.000000,177.999985 
	C208.000000,184.968979 207.484512,191.637756 208.158752,198.184021 
	C208.725525,203.686996 204.059265,209.304367 198.672470,209.913269 
	C193.758774,210.468704 189.017639,204.437546 189.008636,198.052231 
	C188.983704,180.392303 188.999664,162.732315 189.000336,145.072342 
	C189.000443,142.240097 188.753342,139.380219 189.060699,136.581451 
	C189.672150,131.013290 194.262283,127.140610 200.659500,127.047485 
	C212.152695,126.880180 223.650803,126.934067 235.145126,127.057426 
	C237.366943,127.081276 239.580826,127.846054 242.076721,128.568573 
z"/>
<path fill="#FFFFFF" opacity="1.000000" stroke="none" 
	d="
M161.000000,153.222412 
	C161.000000,164.164505 160.818832,174.635254 161.089905,185.094269 
	C161.197052,189.228912 159.316101,190.829193 155.729340,190.957092 
	C150.959106,191.127182 146.178253,190.999054 141.205978,190.999054 
	C141.205978,175.915436 141.205978,161.210541 141.205978,146.001343 
	C145.866547,146.001343 150.475784,145.780457 155.052917,146.068832 
	C158.956558,146.314774 162.067993,147.811707 161.000000,153.222412 
z"/>
<path fill="#FFFFFF" opacity="1.000000" stroke="none" 
	d="
M93.989563,154.575180 
	C92.377441,158.083847 89.985352,159.366516 86.387199,159.072815 
	C82.460938,158.752335 78.488297,159.000000 74.269226,159.000000 
	C74.269226,154.699844 74.269226,150.641068 74.269226,146.008423 
	C78.603226,146.008423 83.037903,145.718521 87.418152,146.082886 
	C92.718513,146.523819 93.979691,148.351059 93.989563,154.575180 
z"/>
</svg>