<?xml version="1.0" encoding="UTF-8"?>
<svg version="1.1" viewBox="0 0 2048 2048" width="1280" height="1280" xmlns="http://www.w3.org/2000/svg">
<path transform="translate(1741,2)" d="m0 0h34l29 4 21 5 24 9 19 9 20 12 18 14 15 14 7 6 6 7 58 58 11 14 12 18 9 16 8 17 8 24 5 21 1 5h2v72l-2 1-5 23-7 22-7 17-10 19-9 14-13 17-11 12-7 8-7 6-5 6-7 6-5 6-7 6-5 6-7 6-12 12-5 6-7 6-5 6-7 6-5 6-7 6-5 6-7 6-5 6-7 6-5 6-7 6-5 6-7 6-5 6-7 6-5 6-7 6-5 6-7 6-144 144-5 6-8 7-28 28-4 5-8 7-4 5-8 7-115 115-5 6-8 7-167 167-5 6-7 6-5 6-7 6-5 6-7 6-5 6-7 6-5 6-7 6-5 6-7 6-5 6-7 6-5 6-7 6-5 6-7 6-16 16-5 6-7 6-5 6-7 6-5 6-8 7-7 7-5 6-7 6-5 6-7 6-5 6-7 6-5 6-6 5-2 3h-2l-2 4h-2l-2 4-11 8-8 4-22 7-362 100-55 15-4 1h-18l-12-4-11-7-8-8-8-14-3-12v-10l4-19 14-50 17-62 55-198 17-62 12-43 5-15 6-11 922-922 8-7 20-15 15-9 16-8 16-7 19-6 21-5zm11 103-18 2-19 5-19 9-12 8-13 11-55 55 2 4 236 236 8-6 7-8 29-29 6-5 7-8 9-10 9-14 7-14 5-15 3-13 1-9v-24l-3-18-7-21-10-19-9-12-14-15-55-55-11-9-10-7-19-10-15-5-16-3-11-1zm-211 164-5 6-737 737 2 4 235 235 3 1 5-5v-2h2l7-8 21-21 6-5 6-7 6-5 6-7 6-5 6-7 6-5 6-7 6-5 6-7 6-5 6-7 6-5 6-7 6-5 6-7 6-5 6-7 6-5 6-7 6-5 6-7 6-5 6-7 6-5 6-7 6-5 6-7 6-5 6-7 6-5 6-7 6-5 6-7 6-5 6-7 6-5 7-8 5-4 6-7 6-5 6-7 6-5 6-7 6-5 6-7 6-5 6-7 6-5 6-7 6-5 6-7 6-5 6-7 6-5 6-7 6-5 6-7 6-5 6-7 6-5 6-7 6-5 6-7 6-5 6-7 6-5 6-7 6-5 6-7 6-5 6-7 6-5 6-7 6-5 6-7 6-5 6-7 6-5 6-7 6-5 6-7 6-5 6-7 6-5 6-7 6-5 6-7 6-5 6-7 6-5 6-7 6-5 6-7 6-5 6-7 6-5 6-7 6-5 6-7 6-5 6-7 6-5 6-7 6-5 6-7 6-5 6-7 6-5 6-7 6-5 6-7 6-5 7-8 22-22-3-5-233-233h-2v-2zm-791 842-3 8-18 65-24 87-17 61-11 40 3 1 70-19 187-52 2-2-14-16-6-5-7-8h-2l-2-4-4-4h-2l-2-4h-2l-1-3-6-5-3-4h-2l-2-4h-2l-2-4h-2l-1-3-6-5-6-7-6-5-6-7-6-5-6-7-6-5-6-7-6-5-6-7-6-5-6-7-25-25h-2l-2-4-8-8h-2l-1-3-8-7-4-5z" fill="#fff"/>
<path transform="translate(262,200)" d="m0 0h428l27 1 13 4 10 7 6 5 7 10 5 12 1 3v19l-4 12-6 10-8 9-14 8-12 3-434 1h-19l-24 1-18 3-20 6-19 9-18 12-14 12-7 7-13 17-8 13-9 21-5 17-3 18-1 42v1289l1 30 3 18 6 21 9 19 10 16 11 13 13 13 18 13 19 10 19 7 19 4 23 2h1432l17-1 22-4 20-7 16-8 16-10 14-12 9-9 8-10 9-14 8-15 6-17 4-15 2-15 1-466 2-15 4-10 6-10h2l2-4 11-8 8-4 9-2h16l11 3 11 6 10 9 8 13 3 11 1 10v455l-2 29-4 24-7 25-8 21-9 19-8 13-7 11-9 12-9 11-15 16-13 12-13 10-18 12-18 10-19 9-30 10-22 5-13 2-34 2h-1412l-36-1-21-2-24-5-19-6-16-6-25-12-19-12-19-14-16-15-15-15-11-14-11-15-12-21-8-16-9-24-6-23-5-22v-1395l3-13 6-25 7-21 8-18 10-19 11-17 13-17 9-10 3-4h2l2-4 14-13 10-8 18-13 19-11 16-8 14-6 22-7 23-5 22-3z" fill="#fff"/>
<path transform="translate(1756)" d="m0 0h8v1h-8z" fill="#fff"/>
</svg>
