<svg version="1.1" id="Layer_1" xmlns="http://www.w3.org/2000/svg" xmlns:xlink="http://www.w3.org/1999/xlink" x="0px" y="0px"
	 width="100%" viewBox="0 0 512 512" enable-background="new 0 0 512 512" xml:space="preserve">
<path fill="#000000" opacity="1.000000" stroke="none" 
	d="
M362.000000,513.000000 
	C292.312439,513.000000 222.624878,513.000000 152.181534,512.707336 
	C151.718933,512.011780 151.928513,511.482605 152.317795,511.224854 
	C158.730911,506.978668 161.541534,500.542572 159.713074,494.191956 
	C157.546692,486.667664 152.458878,483.000122 144.185104,483.000061 
	C108.236221,482.999878 72.287338,483.000000 36.338451,483.000000 
	C34.591125,483.000000 32.843803,483.000000 31.000000,483.000000 
	C31.000000,444.707031 31.000286,407.100647 30.999767,369.494232 
	C30.999660,361.668091 27.882050,357.252228 20.724699,354.933533 
	C13.646397,352.640411 7.460422,354.653351 3.093388,360.570831 
	C2.619740,361.212616 1.708354,361.531403 1.000005,362.000000 
	C1.000000,292.312439 1.000000,222.624878 1.292676,152.181564 
	C1.988245,151.718994 2.517445,151.928543 2.775192,152.317841 
	C7.021286,158.730881 13.457497,161.541550 19.808079,159.713058 
	C27.332354,157.546646 30.999880,152.458847 30.999922,144.185074 
	C31.000105,108.236191 31.000000,72.287308 31.000000,36.338425 
	C31.000000,34.591103 31.000000,32.843781 31.000000,31.000000 
	C69.292976,31.000000 106.899384,31.000286 144.505783,30.999767 
	C152.331924,30.999660 156.747787,27.882076 159.066498,20.724703 
	C161.359589,13.646409 159.346664,7.460467 153.429245,3.093399 
	C152.787415,2.619731 152.468628,1.708346 152.000000,0.999999 
	C221.687561,1.000000 291.375122,1.000000 361.818451,1.292673 
	C362.281036,1.988242 362.071442,2.517453 361.682159,2.775194 
	C355.269135,7.021246 352.458466,13.457521 354.286957,19.808115 
	C356.453369,27.332375 361.541138,30.999880 369.814972,30.999922 
	C405.763855,31.000105 441.712738,31.000000 477.661621,31.000000 
	C479.408936,31.000000 481.156250,31.000000 483.000000,31.000000 
	C483.000000,69.293007 482.999695,106.899406 483.000214,144.505814 
	C483.000336,152.331879 486.117981,156.747833 493.275330,159.066528 
	C500.353638,161.359604 506.539551,159.346664 510.906647,153.429230 
	C511.380310,152.787415 512.291626,152.468613 513.000000,152.000000 
	C513.000000,173.354233 513.000000,194.708450 512.708496,216.818939 
	C509.113281,213.823853 505.974915,209.755707 500.296021,209.757690 
	C495.121368,209.759506 489.912842,209.569717 484.779816,210.077255 
	C476.209503,210.924698 467.562653,211.684799 459.169678,213.504166 
	C437.836884,218.128510 417.503632,225.820404 399.143921,237.617905 
	C382.720490,248.171204 367.170105,260.079010 351.172424,271.300720 
	C342.862488,277.129791 334.638397,283.133484 325.953400,288.356262 
	C320.616516,291.565643 316.613617,288.933685 317.138214,282.704407 
	C317.786835,275.003113 319.169556,267.328033 320.759918,259.751801 
	C322.304565,252.393219 315.922852,242.735168 308.725555,241.962860 
	C299.080444,240.927872 291.043304,244.196777 284.545502,251.040375 
	C270.331818,266.010529 256.559845,281.408356 242.080658,296.112762 
	C238.175400,300.078766 232.571045,302.586578 227.398376,305.025055 
	C222.862442,307.163361 219.064835,304.692841 219.098648,299.836121 
	C219.139618,293.952759 218.794342,287.711731 220.570023,282.262085 
	C225.872421,265.988831 231.866745,249.923615 238.116653,233.983307 
	C241.616852,225.056122 240.141220,217.019226 235.491196,213.273849 
	C228.535446,207.671310 219.866409,207.515259 212.678879,214.016602 
	C207.678085,218.540009 202.802673,223.529678 199.139343,229.139191 
	C190.176376,242.863861 181.902237,257.040741 173.436172,271.087036 
	C161.403137,291.051331 149.883545,311.341522 137.320694,330.964996 
	C127.059021,346.994019 115.658577,362.299011 104.589180,377.800873 
	C102.792038,380.317657 100.091118,382.189056 97.278008,384.862366 
	C96.760452,380.466187 96.174721,377.245331 96.035286,374.005280 
	C95.404472,359.346497 97.471367,344.939270 99.933601,330.528198 
	C104.278412,305.098694 110.612671,280.144348 118.857376,255.770889 
	C127.011604,231.664886 135.687424,207.665710 145.651962,184.265869 
	C152.432327,168.343491 159.814926,152.397491 171.950012,139.326904 
	C176.520493,134.404129 177.705032,127.855415 174.727951,121.611763 
	C172.052185,116.000061 167.055603,113.180763 160.646957,112.971535 
	C151.770340,112.681747 147.518784,119.157051 143.047424,125.028793 
	C132.157272,139.329636 123.961472,155.242981 117.141136,171.755051 
	C108.645844,192.322205 100.285332,212.998856 93.182541,234.071762 
	C86.480400,253.956024 81.257553,274.354736 75.832596,294.647064 
	C73.048691,305.060425 70.972893,315.687439 69.085220,326.308197 
	C67.634270,334.471710 67.014122,342.781097 65.959801,351.017334 
	C63.965519,366.596375 63.981014,382.123047 69.105446,397.112885 
	C75.931885,417.081299 97.212021,423.080597 113.063583,411.240326 
	C119.936966,406.106323 126.700111,400.230225 131.774551,393.399536 
	C144.372833,376.440887 156.226013,358.907715 167.877350,341.274170 
	C175.191818,330.204193 181.599960,318.535370 188.607468,306.812744 
	C191.350540,317.091522 195.165085,324.390594 199.564453,328.045715 
	C213.717102,339.804169 233.153442,338.918671 248.446304,330.090942 
	C263.745972,321.259277 275.276154,308.393646 286.711823,294.914154 
	C287.197327,295.906342 287.543732,296.758240 288.008209,297.539917 
	C290.955719,302.500305 292.906586,308.666656 297.086060,312.166260 
	C309.652283,322.688293 324.457184,324.005432 338.643799,316.415985 
	C351.228241,309.683655 363.051483,301.325317 374.526001,292.766693 
	C394.083130,278.179443 413.493042,263.457001 435.981659,253.537231 
	C449.293121,247.665497 463.092987,243.383926 477.664459,242.008987 
	C485.323853,241.286270 493.022339,240.887161 500.641052,239.874481 
	C503.164581,239.539032 505.563324,237.868103 507.889893,236.575211 
	C509.697327,235.570770 511.304047,234.205093 513.000000,233.000000 
	C513.000000,275.687561 513.000000,318.375122 512.707275,361.818451 
	C512.011719,362.281036 511.482513,362.071442 511.224762,361.682129 
	C506.978790,355.269196 500.542389,352.458466 494.191864,354.286957 
	C486.667572,356.453369 483.000122,361.541107 483.000061,369.814972 
	C482.999878,405.763855 483.000000,441.712708 483.000000,477.661591 
	C483.000000,479.408905 483.000000,481.156250 483.000000,483.000000 
	C444.706970,483.000000 407.100586,482.999695 369.494171,483.000214 
	C361.668060,483.000336 357.252197,486.117950 354.933502,493.275299 
	C352.640381,500.353668 354.653290,506.539612 360.570740,510.906677 
	C361.212585,511.380280 361.531372,512.291687 362.000000,513.000000 
z"/>
<path fill="#FFFFFF" opacity="1.000000" stroke="none" 
	d="
M513.000000,232.533142 
	C511.304047,234.205093 509.697327,235.570770 507.889893,236.575211 
	C505.563324,237.868103 503.164581,239.539032 500.641052,239.874481 
	C493.022339,240.887161 485.323853,241.286270 477.664459,242.008987 
	C463.092987,243.383926 449.293121,247.665497 435.981659,253.537231 
	C413.493042,263.457001 394.083130,278.179443 374.526001,292.766693 
	C363.051483,301.325317 351.228241,309.683655 338.643799,316.415985 
	C324.457184,324.005432 309.652283,322.688293 297.086060,312.166260 
	C292.906586,308.666656 290.955719,302.500305 288.008209,297.539917 
	C287.543732,296.758240 287.197327,295.906342 286.711823,294.914154 
	C275.276154,308.393646 263.745972,321.259277 248.446304,330.090942 
	C233.153442,338.918671 213.717102,339.804169 199.564453,328.045715 
	C195.165085,324.390594 191.350540,317.091522 188.607468,306.812744 
	C181.599960,318.535370 175.191818,330.204193 167.877350,341.274170 
	C156.226013,358.907715 144.372833,376.440887 131.774551,393.399536 
	C126.700111,400.230225 119.936966,406.106323 113.063583,411.240326 
	C97.212021,423.080597 75.931885,417.081299 69.105446,397.112885 
	C63.981014,382.123047 63.965519,366.596375 65.959801,351.017334 
	C67.014122,342.781097 67.634270,334.471710 69.085220,326.308197 
	C70.972893,315.687439 73.048691,305.060425 75.832596,294.647064 
	C81.257553,274.354736 86.480400,253.956024 93.182541,234.071762 
	C100.285332,212.998856 108.645844,192.322205 117.141136,171.755051 
	C123.961472,155.242981 132.157272,139.329636 143.047424,125.028793 
	C147.518784,119.157051 151.770340,112.681747 160.646957,112.971535 
	C167.055603,113.180763 172.052185,116.000061 174.727951,121.611763 
	C177.705032,127.855415 176.520493,134.404129 171.950012,139.326904 
	C159.814926,152.397491 152.432327,168.343491 145.651962,184.265869 
	C135.687424,207.665710 127.011604,231.664886 118.857376,255.770889 
	C110.612671,280.144348 104.278412,305.098694 99.933601,330.528198 
	C97.471367,344.939270 95.404472,359.346497 96.035286,374.005280 
	C96.174721,377.245331 96.760452,380.466187 97.278008,384.862366 
	C100.091118,382.189056 102.792038,380.317657 104.589180,377.800873 
	C115.658577,362.299011 127.059021,346.994019 137.320694,330.964996 
	C149.883545,311.341522 161.403137,291.051331 173.436172,271.087036 
	C181.902237,257.040741 190.176376,242.863861 199.139343,229.139191 
	C202.802673,223.529678 207.678085,218.540009 212.678879,214.016602 
	C219.866409,207.515259 228.535446,207.671310 235.491196,213.273849 
	C240.141220,217.019226 241.616852,225.056122 238.116653,233.983307 
	C231.866745,249.923615 225.872421,265.988831 220.570023,282.262085 
	C218.794342,287.711731 219.139618,293.952759 219.098648,299.836121 
	C219.064835,304.692841 222.862442,307.163361 227.398376,305.025055 
	C232.571045,302.586578 238.175400,300.078766 242.080658,296.112762 
	C256.559845,281.408356 270.331818,266.010529 284.545502,251.040375 
	C291.043304,244.196777 299.080444,240.927872 308.725555,241.962860 
	C315.922852,242.735168 322.304565,252.393219 320.759918,259.751801 
	C319.169556,267.328033 317.786835,275.003113 317.138214,282.704407 
	C316.613617,288.933685 320.616516,291.565643 325.953400,288.356262 
	C334.638397,283.133484 342.862488,277.129791 351.172424,271.300720 
	C367.170105,260.079010 382.720490,248.171204 399.143921,237.617905 
	C417.503632,225.820404 437.836884,218.128510 459.169678,213.504166 
	C467.562653,211.684799 476.209503,210.924698 484.779816,210.077255 
	C489.912842,209.569717 495.121368,209.759506 500.296021,209.757690 
	C505.974915,209.755707 509.113281,213.823853 512.708496,217.287598 
	C513.000000,222.022095 513.000000,227.044189 513.000000,232.533142 
z"/>
<path fill="#FFFFFF" opacity="1.000000" stroke="none" 
	d="
M151.531342,0.999999 
	C152.468628,1.708346 152.787415,2.619731 153.429245,3.093399 
	C159.346664,7.460467 161.359589,13.646409 159.066498,20.724703 
	C156.747787,27.882076 152.331924,30.999660 144.505783,30.999767 
	C106.899384,31.000286 69.292976,31.000000 31.000000,31.000000 
	C31.000000,32.843781 31.000000,34.591103 31.000000,36.338425 
	C31.000000,72.287308 31.000105,108.236191 30.999922,144.185074 
	C30.999880,152.458847 27.332354,157.546646 19.808079,159.713058 
	C13.457497,161.541550 7.021286,158.730881 2.775192,152.317841 
	C2.517445,151.928543 1.988245,151.718994 1.292676,151.712906 
	C1.000000,104.312439 1.000000,56.624878 1.292359,8.756260 
	C3.723145,6.050137 5.861572,3.525068 8.000000,1.000000 
	C55.687561,1.000000 103.375122,1.000000 151.531342,0.999999 
z"/>
<path fill="#FFFFFF" opacity="1.000000" stroke="none" 
	d="
M513.000000,151.531342 
	C512.291626,152.468613 511.380310,152.787415 510.906647,153.429230 
	C506.539551,159.346664 500.353638,161.359604 493.275330,159.066528 
	C486.117981,156.747833 483.000336,152.331879 483.000214,144.505814 
	C482.999695,106.899406 483.000000,69.293007 483.000000,31.000000 
	C481.156250,31.000000 479.408936,31.000000 477.661621,31.000000 
	C441.712738,31.000000 405.763855,31.000105 369.814972,30.999922 
	C361.541138,30.999880 356.453369,27.332375 354.286957,19.808115 
	C352.458466,13.457521 355.269135,7.021246 361.682159,2.775194 
	C362.071442,2.517453 362.281036,1.988242 362.287109,1.292673 
	C409.687561,1.000000 457.375122,1.000000 505.243774,1.292363 
	C507.949890,3.723146 510.474945,5.861566 513.000000,7.999993 
	C513.000000,55.687561 513.000000,103.375122 513.000000,151.531342 
z"/>
<path fill="#FFFFFF" opacity="1.000000" stroke="none" 
	d="
M1.000005,362.468689 
	C1.708354,361.531403 2.619740,361.212616 3.093388,360.570831 
	C7.460422,354.653351 13.646397,352.640411 20.724699,354.933533 
	C27.882050,357.252228 30.999660,361.668091 30.999767,369.494232 
	C31.000286,407.100647 31.000000,444.707031 31.000000,483.000000 
	C32.843803,483.000000 34.591125,483.000000 36.338451,483.000000 
	C72.287338,483.000000 108.236221,482.999878 144.185104,483.000061 
	C152.458878,483.000122 157.546692,486.667664 159.713074,494.191956 
	C161.541534,500.542572 158.730911,506.978668 152.317795,511.224854 
	C151.928513,511.482605 151.718933,512.011780 151.712875,512.707336 
	C104.312439,513.000000 56.624878,513.000000 8.756260,512.707642 
	C6.050137,510.276855 3.525069,508.138428 1.000000,506.000000 
	C1.000000,458.312439 1.000000,410.624878 1.000005,362.468689 
z"/>
<path fill="#FFFFFF" opacity="1.000000" stroke="none" 
	d="
M362.468658,513.000000 
	C361.531372,512.291687 361.212585,511.380280 360.570740,510.906677 
	C354.653290,506.539612 352.640381,500.353668 354.933502,493.275299 
	C357.252197,486.117950 361.668060,483.000336 369.494171,483.000214 
	C407.100586,482.999695 444.706970,483.000000 483.000000,483.000000 
	C483.000000,481.156250 483.000000,479.408905 483.000000,477.661591 
	C483.000000,441.712708 482.999878,405.763855 483.000061,369.814972 
	C483.000122,361.541107 486.667572,356.453369 494.191864,354.286957 
	C500.542389,352.458466 506.978790,355.269196 511.224762,361.682129 
	C511.482513,362.071442 512.011719,362.281036 512.707275,362.287109 
	C513.000000,409.687561 513.000000,457.375122 512.707642,505.243774 
	C510.276855,507.949921 508.138458,510.474976 506.000000,513.000000 
	C458.312439,513.000000 410.624878,513.000000 362.468658,513.000000 
z"/>
<path fill="#000000" opacity="1.000000" stroke="none" 
	d="
M7.502095,1.000000 
	C5.861572,3.525068 3.723145,6.050137 1.292359,8.287602 
	C1.000000,5.752362 1.000000,3.504725 1.000000,1.000000 
	C2.998142,1.000000 5.001166,1.000000 7.502095,1.000000 
z"/>
<path fill="#000000" opacity="1.000000" stroke="none" 
	d="
M513.000000,7.502089 
	C510.474945,5.861566 507.949890,3.723146 505.712402,1.292363 
	C508.247650,1.000000 510.495270,1.000000 513.000000,1.000000 
	C513.000000,2.998142 513.000000,5.001166 513.000000,7.502089 
z"/>
<path fill="#000000" opacity="1.000000" stroke="none" 
	d="
M1.000000,506.497925 
	C3.525069,508.138428 6.050137,510.276855 8.287602,512.707642 
	C5.752364,513.000000 3.504728,513.000000 1.000000,513.000000 
	C1.000000,511.001862 1.000000,508.998840 1.000000,506.497925 
z"/>
<path fill="#000000" opacity="1.000000" stroke="none" 
	d="
M506.497925,513.000000 
	C508.138458,510.474976 510.276855,507.949921 512.707642,505.712433 
	C513.000000,508.247650 513.000000,510.495270 513.000000,513.000000 
	C511.001862,513.000000 508.998840,513.000000 506.497925,513.000000 
z"/>
</svg>